<?xml version="1.0" encoding="utf-8"?>
<!-- Generator: Adobe Illustrator 20.0.0, SVG Export Plug-In . SVG Version: 6.00 Build 0)  -->
<!DOCTYPE svg PUBLIC "-//W3C//DTD SVG 1.1//EN" "http://www.w3.org/Graphics/SVG/1.1/DTD/svg11.dtd">
<svg version="1.1" id="Capa_1" xmlns="http://www.w3.org/2000/svg" xmlns:xlink="http://www.w3.org/1999/xlink" x="0px" y="0px"
	 viewBox="0 0 256.6 256.6" style="enable-background:new 0 0 256.6 256.6;" xml:space="preserve">
<style type="text/css">
	.st0{fill:#FFFFFF;}
</style>
<g>
	<g id="_x38_7_36_">
		<g>
			<path class="st0" d="M60.9,112.5c-6.9,0-6.9,10.6,0,10.6c27.3,0,54.6,0,81.9,0c6.9,0,6.9-10.6,0-10.6
				C115.4,112.5,88.2,112.5,60.9,112.5z"/>
			<path class="st0" d="M142.7,137.7c-27.3,0-54.6,0-81.9,0c-6.9,0-6.9,10.6,0,10.6c27.3,0,54.6,0,81.9,0
				C149.6,148.3,149.6,137.7,142.7,137.7z"/>
			<path class="st0" d="M142.7,161c-27.3,0-54.6,0-81.9,0c-6.9,0-6.9,10.6,0,10.6c27.3,0,54.6,0,81.9,0
				C149.6,171.6,149.6,161,142.7,161z"/>
			<path class="st0" d="M142.7,186.2c-27.3,0-54.6,0-81.9,0c-6.9,0-6.9,10.6,0,10.6c27.3,0,54.6,0,81.9,0
				C149.6,196.8,149.6,186.2,142.7,186.2z"/>
			<path class="st0" d="M141.2,209.9c-27.3,0-54.6,0-81.9,0c-6.8,0-6.8,10.6,0,10.6c27.3,0,54.6,0,81.9,0
				C148,220.6,148,209.9,141.2,209.9z"/>
			<path class="st0" d="M25.4,58.1v198.5h152.9v-171l-28.4-27.5C149.8,58.1,25.4,58.1,25.4,58.1z M165,243.4H38.6V71.3H143v21h22
				L165,243.4L165,243.4z"/>
			<polygon class="st0" points="51.2,27.7 51.2,50.6 64.4,50.6 64.4,40.9 168.9,40.9 168.9,61.8 190.9,61.8 190.9,213 185.1,213 
				185.1,226.2 204.1,226.2 204.1,55.2 175.7,27.7 			"/>
			<polygon class="st0" points="202.8,0 78.4,0 78.4,23 91.6,23 91.6,13.2 196,13.2 196,34.2 218,34.2 218,185.3 212.2,185.3 
				212.2,198.5 231.2,198.5 231.2,27.5 			"/>
		</g>
	</g>
</g>
</svg>
