<?xml version="1.0" encoding="UTF-8" standalone="no"?>
<svg width="81px" height="74px" viewBox="0 0 81 74" version="1.1" xmlns="http://www.w3.org/2000/svg" xmlns:xlink="http://www.w3.org/1999/xlink" xmlns:sketch="http://www.bohemiancoding.com/sketch/ns">
    <!-- Generator: Sketch 3.4.3 (16044) - http://www.bohemiancoding.com/sketch -->
    <title>cellphone106</title>
    <desc>Created with Sketch.</desc>
    <defs></defs>
    <g id="Welcome" stroke="none" stroke-width="1" fill="none" fill-rule="evenodd" sketch:type="MSPage">
        <g id="Desktop-HD-3" sketch:type="MSArtboardGroup" transform="translate(-130.000000, -684.000000)" fill="#237D8D">
            <g id="cellphone106" sketch:type="MSLayerGroup" transform="translate(130.000000, 684.000000)">
                <g id="Capa_1" sketch:type="MSShapeGroup">
                    <g id="Group">
                        <path d="M6.59657228,51.5725834 C5.94170797,51.5725834 5.40843249,51.0595899 5.40843249,50.4300289 L5.40843249,6.36238087 C5.40843249,5.73298162 5.94187614,5.22014976 6.59657228,5.22014976 L74.1399227,5.22014976 C74.7949552,5.22014976 75.3280625,5.73298162 75.3280625,6.36238087 L75.3280625,16.0137083 C77.3062774,16.2382743 79.1598764,16.86153 80.7363268,17.8860619 L80.7363268,6.36238087 C80.7363268,2.86535909 77.7761518,0.0206943499 74.1397546,0.0206943499 L6.59657228,0.0206943499 C2.96017502,0.0206943499 0,2.86519741 0,6.36238087 L0,50.4298673 C0,53.9270507 2.96017502,56.7718771 6.59657228,56.7718771 L29.2359747,56.7718771 L29.2359747,65.2728897 L25.6658375,65.2728897 C23.4264504,65.2728897 21.6095131,67.0183288 21.6095131,69.1724813 C21.6095131,71.3266338 23.4264504,73.0720728 25.6658375,73.0720728 L37.0528078,73.0720728 C35.6295626,71.1478216 34.7713776,68.8119469 34.7713776,66.2757573 L34.7713776,51.5725834 L6.59657228,51.5725834 Z" id="Shape"></path>
                        <path d="M57.471154,63.5224387 L45.587738,63.5224387 L45.587738,27.6461964 C45.587738,26.8893975 46.2267941,26.2737406 47.0136739,26.2737406 L73.9022948,26.2737406 C74.6891746,26.2737406 75.3280625,26.8893975 75.3280625,27.6461964 L75.3280625,38.7493618 L77.3538703,38.7493618 C78.5922937,38.7493618 79.7383903,39.0932437 80.7363268,39.6542546 L80.7363268,27.6461964 C80.7363268,24.0219367 77.6705394,21.0744469 73.9021266,21.0744469 L47.0136739,21.0744469 C43.2454293,21.0744469 40.1794737,24.0219367 40.1794737,27.6461964 L40.1794737,66.2755956 C40.1794737,69.8998553 43.2452611,72.8471835 47.0136739,72.8471835 L58.6912466,72.8471835 C57.9465781,71.8190946 57.471154,70.3864959 57.471154,69.139338 L57.471154,63.5224387 Z" id="Shape"></path>
                        <path d="M77.3538703,41.9990214 L64.2370761,41.9990214 C62.369687,41.9990214 60.8514243,43.4600749 60.8514243,45.2548247 L60.8514243,69.139338 C60.8514243,70.9340878 62.369687,72.3940095 64.2370761,72.3940095 L77.3538703,72.3940095 C79.2209231,72.3940095 80.7391858,70.9340878 80.7391858,69.139338 L80.7391858,45.254663 C80.7391858,43.4599132 79.2207549,41.9990214 77.3538703,41.9990214 L77.3538703,41.9990214 Z M64.9075805,45.8984513 L76.6828614,45.8984513 L76.6828614,66.5447839 L64.9075805,66.5447839 L64.9075805,45.8984513 L64.9075805,45.8984513 Z M70.7968186,70.8123468 C70.4243161,70.8123468 70.0916706,70.6674864 69.8382345,70.4442138 C69.5501547,70.1928097 69.365333,69.8397124 69.365333,69.4373043 C69.365333,68.6784037 70.0045572,68.0638785 70.7968186,68.0638785 C71.5836984,68.0638785 72.2227545,68.6784037 72.2227545,69.4373043 C72.2227545,69.8397124 72.0377646,70.1926481 71.7527119,70.4442138 C71.4989394,70.6676481 71.1662939,70.8123468 70.7968186,70.8123468 L70.7968186,70.8123468 Z" id="Shape"></path>
                    </g>
                </g>
            </g>
        </g>
    </g>
</svg>