<?xml version="1.0" encoding="UTF-8" standalone="no"?>
<svg width="82px" height="100px" viewBox="0 0 82 100" version="1.1" xmlns="http://www.w3.org/2000/svg" xmlns:xlink="http://www.w3.org/1999/xlink" xmlns:sketch="http://www.bohemiancoding.com/sketch/ns">
    <!-- Generator: Sketch 3.4.3 (16044) - http://www.bohemiancoding.com/sketch -->
    <title>computing29</title>
    <desc>Created with Sketch.</desc>
    <defs></defs>
    <g id="Welcome" stroke="none" stroke-width="1" fill="none" fill-rule="evenodd" sketch:type="MSPage">
        <g id="Desktop-HD-3" sketch:type="MSArtboardGroup" transform="translate(-129.000000, -1280.000000)" fill="#237D8D">
            <g id="computing29" sketch:type="MSLayerGroup" transform="translate(129.000000, 1280.000000)">
                <g id="Capa_1" sketch:type="MSShapeGroup">
                    <path d="M81.6633305,97.6163934 C81.6633305,98.9098361 80.568316,99.9583138 79.2174638,99.9583138 L33.9305301,99.9583138 C32.5796779,99.9583138 31.4846634,98.9098361 31.4846634,97.6163934 C31.4846634,96.3229508 32.5796779,95.2744731 33.9305301,95.2744731 L79.2174638,95.2744731 C80.568316,95.2744731 81.6633305,96.3229508 81.6633305,97.6163934 L81.6633305,97.6163934 Z M22.9089657,47.3077283 C30.5938788,45.6763466 38.5906399,48.0669789 42.3558071,53.1222482 C43.1404411,54.1754098 44.6676402,54.4201405 45.7673019,53.6690867 C46.8669636,52.9180328 47.1228012,51.4555035 46.3384118,50.4025761 C43.821615,47.0238876 40.0204936,44.528103 35.345464,43.1852459 C31.0659311,41.9557377 26.2730107,41.7960187 21.85015,42.7351288 C13.35859,44.5379391 7.44644111,49.9714286 6.03517603,57.2693208 L0.270512855,87.0662763 C0.137946881,87.7503513 0.330436588,88.4822014 0.795151258,89.017096 C1.25986593,89.5519906 1.94886657,89.8880562 2.67553356,89.8880562 L23.2142098,89.8880562 C24.565062,89.8880562 25.6600765,88.8395785 25.6600765,87.5461358 C25.6600765,86.2526932 24.565062,85.2042155 23.2142098,85.2042155 L5.61595448,85.2042155 L10.8449729,58.1487119 C12.3469796,50.3810304 19.7821697,47.9716628 22.9089657,47.3077283 L22.9089657,47.3077283 Z M78.3682589,88.482904 C78.3682589,89.7763466 77.2732444,90.8248244 75.9223922,90.8248244 L37.033112,90.8248244 C35.6822598,90.8248244 34.5872453,89.7763466 34.5872453,88.482904 L34.5872453,63.658548 C34.5872453,62.3651054 35.6822598,61.3166276 37.033112,61.3166276 L75.9223922,61.3166276 C77.2732444,61.3166276 78.3682589,62.3651054 78.3682589,63.658548 L78.3682589,88.482904 L78.3682589,88.482904 Z M39.4789787,86.1409836 L73.4765255,86.1409836 L73.4765255,66.0004684 L39.4789787,66.0004684 L39.4789787,86.1409836 L39.4789787,86.1409836 Z M15.5510649,32.3070258 C12.7698699,29.542623 9.52567237,24.4320843 9.86369115,15.7843091 C10.2278807,6.45222482 17.4001401,1.39648712 24.7666014,0.185714286 C25.1823988,0.117330211 28.1511917,-0.0466042155 28.7802686,0.0128805621 C29.2589247,0.0580796253 31.3990581,0.346370023 31.4614277,0.364637002 C38.485223,1.83934426 45.0726758,6.85152225 45.4217009,15.7847775 C45.7594751,24.4325527 42.5152776,29.5430913 39.7340826,32.3074941 C36.5096965,35.5124122 32.2154884,37.2775176 27.6424515,37.2775176 C23.0694145,37.2775176 18.7752064,35.5119438 15.5510649,32.3070258 L15.5510649,32.3070258 Z M40.2650802,20.6751756 C39.2850214,20.8459016 38.2986034,20.9351288 37.3163434,20.9351288 C33.3670024,20.9351288 29.488347,19.5735363 26.3857652,17.0156909 C26.0646229,17.2812646 25.7366321,17.5393443 25.3949446,17.781733 C22.4855862,19.8461358 19.0019382,20.9309133 15.4642367,20.9309133 C15.329714,20.9309133 15.1947022,20.923185 15.0601795,20.9201405 C15.6432741,24.2283372 16.9973059,26.9934426 19.0740913,29.0576112 C21.3678251,31.3377049 24.4107278,32.5934426 27.6424515,32.5934426 C30.8741751,32.5934426 33.9170778,31.3377049 36.2110562,29.0576112 C38.3387156,26.942623 39.7066889,24.0915691 40.2650802,20.6751756 L40.2650802,20.6751756 Z M32.8103232,5.61451991 C32.2460617,8.5793911 31.1603415,11.2433255 29.6064824,13.4929742 C32.6520756,15.9814988 36.7298245,16.8543326 40.5238529,15.8152225 C40.2589656,10.4995316 36.9416366,7.16651054 32.8103232,5.61451991 L32.8103232,5.61451991 Z M14.7466194,16.2255269 C17.4881913,16.3866511 20.2278066,15.6185012 22.4826511,14.0185012 C25.3655942,11.9728337 27.2900021,8.68009368 28.029143,4.61522248 C27.9002458,4.60725995 26.8529257,4.63770492 26.4588966,4.68009368 C20.9493373,5.27236534 15.6268868,8.53278689 14.8407853,14.8592506 C14.7967597,15.2161593 14.7493098,16.1362998 14.7466194,16.2255269 L14.7466194,16.2255269 Z M53.977098,70.7925059 C53.1337632,69.7819672 51.5948239,69.6173302 50.5394324,70.4248244 L45.5185573,74.2660422 C44.9376639,74.7103044 44.5994006,75.3836066 44.5994006,76.0957845 C44.5994006,76.8079625 44.9376639,77.4810304 45.5185573,77.9255269 L50.5394324,81.7669789 C50.9902056,82.1119438 51.5292746,82.2793911 52.0646748,82.2793911 C52.7827813,82.2793911 53.4940393,81.9779859 53.977098,81.3992974 C54.8201882,80.388993 54.6484884,78.9152225 53.5930969,78.1077283 L50.9637903,76.0960187 L53.5930969,74.0845433 C54.6482438,73.276815 54.8201882,71.8030445 53.977098,70.7925059 L53.977098,70.7925059 Z M67.6306596,74.2660422 L62.6097845,70.4248244 C61.5546376,69.6175644 60.0154537,69.7819672 59.1721188,70.7925059 C58.3290286,71.8030445 58.5007284,73.2765808 59.5561199,74.0840749 L62.1854266,76.0955504 L59.5561199,78.10726 C58.5007284,78.9147541 58.328784,80.3882904 59.1721188,81.398829 C59.6551775,81.9777518 60.3664355,82.2789227 61.084542,82.2789227 C61.6199422,82.2789227 62.1590112,82.1112412 62.6097845,81.7665105 L67.6306596,77.9250585 C68.2115529,77.4805621 68.5498163,76.8074941 68.5498163,76.0953162 C68.5498163,75.3831382 68.2115529,74.7103044 67.6306596,74.2660422 L67.6306596,74.2660422 Z" id="Shape"></path>
                </g>
            </g>
        </g>
    </g>
</svg>