<?xml version="1.0" encoding="UTF-8" standalone="no"?>
<svg width="77px" height="77px" viewBox="0 0 77 77" version="1.1" xmlns="http://www.w3.org/2000/svg" xmlns:xlink="http://www.w3.org/1999/xlink" xmlns:sketch="http://www.bohemiancoding.com/sketch/ns">
    <!-- Generator: Sketch 3.4.3 (16044) - http://www.bohemiancoding.com/sketch -->
    <title>internet54</title>
    <desc>Created with Sketch.</desc>
    <defs></defs>
    <g id="Welcome" stroke="none" stroke-width="1" fill="none" fill-rule="evenodd" sketch:type="MSPage">
        <g id="Desktop-HD-3" sketch:type="MSArtboardGroup" transform="translate(-778.000000, -1296.000000)" fill="#237D8D">
            <g id="internet54" sketch:type="MSLayerGroup" transform="translate(778.000000, 1296.000000)">
                <g id="Capa_1" sketch:type="MSShapeGroup">
                    <g id="Group">
                        <path d="M23.9381154,33.2343846 L19.0101154,44.4230769 C18.8886923,44.7014615 18.5836538,44.8791538 18.249,44.8791538 L15.7257692,44.8791538 C15.3911154,44.8791538 15.0860769,44.6985 14.9676154,44.4230769 L12.628,39.0834231 C12.3999615,38.5562692 12.1926538,38.0528077 11.9971923,37.5523077 C11.781,38.1031538 11.5588846,38.6155 11.3367692,39.1071154 L8.86980769,44.4378846 C8.74542308,44.7073846 8.44334615,44.8791538 8.11461538,44.8791538 L5.59138462,44.8791538 C5.24488462,44.8791538 4.94280769,44.6925769 4.82434615,44.4112308 L0.213230769,33.2195769 C0.124384615,33.0004231 0.159923077,32.7575769 0.313923077,32.5650769 C0.467923077,32.3725769 0.713730769,32.2600385 0.980269231,32.2600385 L3.82038462,32.2600385 C4.17873077,32.2600385 4.49265385,32.4643846 4.59926923,32.7605385 L6.62496154,38.4466923 C6.79376923,38.9264615 6.95073077,39.3795769 7.09584615,39.8119615 C7.27353846,39.3795769 7.46603846,38.9235 7.67038462,38.4407692 L10.164,32.7190769 C10.2854231,32.4436538 10.5875,32.2600385 10.9221538,32.2600385 L13.2676923,32.2600385 C13.6082692,32.2600385 13.9103462,32.4466154 14.0317692,32.725 L16.3950769,38.3223077 C16.6083077,38.8257692 16.7978462,39.2966538 16.9725769,39.7408846 C17.1176923,39.3203462 17.2865,38.8642692 17.479,38.3637692 L19.6616538,32.7427692 C19.7741923,32.4525385 20.0851538,32.2570769 20.4316538,32.2570769 L23.1740385,32.2570769 C23.4435385,32.2570769 23.6923077,32.3725769 23.8463077,32.5650769 C24.0032692,32.7664615 24.0328846,33.0122692 23.9381154,33.2343846 L23.9381154,33.2343846 Z M50.3609615,33.2343846 L45.4329615,44.4230769 C45.3115385,44.7014615 45.0065,44.8791538 44.6748077,44.8791538 L42.1456538,44.8791538 C41.811,44.8791538 41.5089231,44.6985 41.3875,44.4230769 L39.0508462,39.0834231 C38.8198462,38.5562692 38.6125385,38.0528077 38.4170769,37.5523077 C38.2008846,38.1031538 37.9787692,38.6155 37.7566538,39.1071154 L35.2896923,44.4378846 C35.1653077,44.7073846 34.8661923,44.8791538 34.5345,44.8791538 L32.0083077,44.8791538 C31.6647692,44.8791538 31.3597308,44.6925769 31.2412692,44.4112308 L26.6301538,33.2195769 C26.5413077,33.0004231 26.5768462,32.7575769 26.7308462,32.5650769 C26.8848462,32.3755385 27.1336154,32.2600385 27.3971923,32.2600385 L30.2373077,32.2600385 C30.5956538,32.2600385 30.9095769,32.4643846 31.0161923,32.7605385 L33.0389231,38.4466923 C33.2077308,38.9264615 33.3646923,39.3795769 33.5157308,39.8119615 C33.6904615,39.3795769 33.88,38.9235 34.0843462,38.4407692 L36.5809231,32.7190769 C36.6993846,32.4436538 37.0014615,32.2600385 37.3390769,32.2600385 L39.6846154,32.2600385 C40.0251923,32.2600385 40.3302308,32.4466154 40.4486923,32.725 L42.8149615,38.3223077 C43.0252308,38.8257692 43.2147692,39.2966538 43.3865385,39.7408846 C43.5375769,39.3203462 43.7004615,38.8642692 43.8959231,38.3637692 L46.0785769,32.7427692 C46.1911154,32.4525385 46.5050385,32.2570769 46.8515385,32.2570769 L49.5939231,32.2570769 C49.8663846,32.2570769 50.1181154,32.3725769 50.2661923,32.5650769 C50.4231538,32.7664615 50.4586923,33.0122692 50.3609615,33.2343846 L50.3609615,33.2343846 Z M76.7808462,33.2343846 L71.8558077,44.4230769 C71.7314231,44.7014615 71.4293462,44.8791538 71.0946923,44.8791538 L68.5685,44.8791538 C68.2338462,44.8791538 67.9288077,44.6985 67.8103462,44.4230769 L65.4736923,39.0834231 C65.2426923,38.5562692 65.0353846,38.0528077 64.8399231,37.5523077 C64.6237308,38.1031538 64.3986538,38.6155 64.1765385,39.1071154 L61.7095769,44.4378846 C61.5851923,44.7073846 61.2831154,44.8791538 60.9543846,44.8791538 L58.4311538,44.8791538 C58.0846538,44.8791538 57.7796154,44.6925769 57.6611538,44.4112308 L53.0500385,33.2195769 C52.9641538,33.0004231 52.9937692,32.7575769 53.1477692,32.5650769 C53.3017692,32.3725769 53.5505385,32.2600385 53.8170769,32.2600385 L56.6601538,32.2600385 C57.0185,32.2600385 57.3324231,32.4643846 57.4360769,32.7605385 L59.4617692,38.4466923 C59.6305769,38.9264615 59.7875385,39.3795769 59.9356154,39.8119615 C60.1103462,39.3795769 60.2998846,38.9235 60.5042308,38.4407692 L63.0008077,32.7190769 C63.1222308,32.4436538 63.4243077,32.2600385 63.7619231,32.2600385 L66.1045,32.2600385 C66.4450769,32.2600385 66.7501154,32.4466154 66.8685769,32.725 L69.2318846,38.3223077 C69.4451154,38.8257692 69.6376154,39.2966538 69.8123462,39.7408846 C69.9574615,39.3203462 70.1262692,38.8642692 70.3187692,38.3637692 L72.5043846,32.7427692 C72.6139615,32.4525385 72.9249231,32.2570769 73.2743846,32.2570769 L76.0167692,32.2570769 C76.2892308,32.2570769 76.538,32.3725769 76.6890385,32.5650769 C76.8400769,32.7664615 76.8756154,33.0122692 76.7808462,33.2343846 L76.7808462,33.2343846 Z" id="Shape"></path>
                        <g transform="translate(1.000000, 0.000000)" id="Shape">
                            <path d="M7.02576923,26.6538462 C7.86388462,24.5274615 8.91226923,22.5047308 10.1561154,20.6211923 C10.3397308,20.6567308 10.5115,20.7307692 10.704,20.7307692 L16.2716923,20.7307692 C15.6823462,22.6083846 15.2203462,24.6074231 14.8205385,26.6538462 L20.9065,26.6538462 C21.3655385,24.5837308 21.8986154,22.5787692 22.5708846,20.7307692 L52.1448077,20.7307692 C52.8170769,22.5787692 53.3501538,24.5837308 53.8091923,26.6538462 L59.8951538,26.6538462 C59.4953462,24.6074231 59.0333462,22.6083846 58.444,20.7307692 L64.0116923,20.7307692 C64.2041923,20.7307692 64.3759615,20.6567308 64.5625385,20.6211923 C65.8004615,22.5047308 66.8518077,24.5274615 67.6899231,26.6538462 L73.9713462,26.6538462 C68.9633846,11.2064615 54.4518462,0 37.3578462,0 C20.2638462,0 5.75230769,11.2064615 0.741384615,26.6538462 L7.02576923,26.6538462 L7.02576923,26.6538462 Z M59.6463846,14.8076923 L56.1280769,14.8076923 C55.364,13.1995769 54.5229231,11.6980769 53.6078077,10.3091154 C55.7993462,11.5766538 57.8191154,13.0870385 59.6463846,14.8076923 L59.6463846,14.8076923 Z M37.3578462,5.92307692 C41.9511923,5.92307692 46.1921154,9.34069231 49.3876154,14.8076923 L25.3280769,14.8076923 C28.5235769,9.34069231 32.7645,5.92307692 37.3578462,5.92307692 L37.3578462,5.92307692 Z M21.1019615,10.3091154 C20.1898077,11.6980769 19.3487308,13.1995769 18.5846538,14.8076923 L15.0693077,14.8076923 C16.8965769,13.0870385 18.9163462,11.5766538 21.1019615,10.3091154 L21.1019615,10.3091154 Z"></path>
                            <path d="M67.6899231,50.3461538 C66.8518077,52.4755 65.8004615,54.4923077 64.5595769,56.3788077 C64.3759615,56.3432692 64.2041923,56.2692308 64.0116923,56.2692308 L58.4410385,56.2692308 C59.0303846,54.3916154 59.4923846,52.3925769 59.8921923,50.3461538 L53.8062308,50.3461538 C53.3501538,52.4162692 52.8141154,54.4241923 52.1418462,56.2692308 L22.5708846,56.2692308 C21.8986154,54.4241923 21.3655385,52.4162692 20.9065,50.3461538 L14.8235,50.3461538 C15.2233077,52.3925769 15.6853077,54.3916154 16.2746538,56.2692308 L10.704,56.2692308 C10.5115,56.2692308 10.3397308,56.3432692 10.1561154,56.3788077 C8.91523077,54.4923077 7.86388462,52.4755 7.02576923,50.3461538 L0.741384615,50.3461538 C5.75230769,65.7935385 20.2638462,77 37.3578462,77 C54.4518462,77 68.9633846,65.7935385 73.9713462,50.3461538 L67.6899231,50.3461538 L67.6899231,50.3461538 Z M15.0693077,62.1923077 L18.5876154,62.1923077 C19.3516923,63.8004231 20.1927692,65.3048846 21.1049231,66.6908846 C18.9163462,65.4233462 16.8965769,63.9129615 15.0693077,62.1923077 L15.0693077,62.1923077 Z M37.3578462,71.0769231 C32.7645,71.0769231 28.5235769,67.6593077 25.3280769,62.1923077 L49.3846538,62.1923077 C46.1921154,67.6593077 41.9511923,71.0769231 37.3578462,71.0769231 L37.3578462,71.0769231 Z M53.6107692,66.6908846 C54.5258846,65.3048846 55.3669615,63.8004231 56.1310385,62.1923077 L59.6493462,62.1923077 C57.8191154,63.9129615 55.7993462,65.4233462 53.6107692,66.6908846 L53.6107692,66.6908846 Z"></path>
                        </g>
                    </g>
                </g>
            </g>
        </g>
    </g>
</svg>