<?xml version="1.0" encoding="UTF-8" standalone="no"?>
<svg width="70px" height="89px" viewBox="0 0 70 89" version="1.1" xmlns="http://www.w3.org/2000/svg" xmlns:xlink="http://www.w3.org/1999/xlink" xmlns:sketch="http://www.bohemiancoding.com/sketch/ns">
    <!-- Generator: Sketch 3.4.3 (16044) - http://www.bohemiancoding.com/sketch -->
    <title>robots9</title>
    <desc>Created with Sketch.</desc>
    <defs></defs>
    <g id="Welcome" stroke="none" stroke-width="1" fill="none" fill-rule="evenodd" sketch:type="MSPage">
        <g id="Desktop-HD-3" sketch:type="MSArtboardGroup" transform="translate(-135.000000, -1068.000000)" fill="#237D8D">
            <g id="robots9" sketch:type="MSLayerGroup" transform="translate(135.000000, 1068.000000)">
                <g id="Capa_1" sketch:type="MSShapeGroup">
                    <path d="M42.7147996,35.2930493 C42.7147996,33.5288313 44.1836285,32.0775988 46.0358813,32.0775988 C47.8575294,32.0775988 49.3223162,33.5288313 49.3223162,35.2930493 C49.3223162,37.0609647 47.8534873,38.4974076 46.0358813,38.4974076 C44.1834361,38.493895 42.7147996,37.0611496 42.7147996,35.2930493 L42.7147996,35.2930493 Z M32.4025851,7.95219932 L32.3758302,7.95219932 L32.3758302,12.3500807 L36.5827132,12.3500807 L36.5827132,8.08475138 C38.0284443,7.38131959 39.0216506,5.94469188 39.0216506,4.27623672 C39.0101017,1.9078623 37.0390877,0 34.6115067,0 C32.1648701,0 30.1898139,1.9078623 30.1898139,4.27253931 C30.1898139,5.85632384 31.0835071,7.21549086 32.4025851,7.95219932 L32.4025851,7.95219932 Z M23.2140796,38.493895 C25.043427,38.493895 26.5313116,37.0574522 26.5313116,35.2895368 C26.5313116,33.5253187 25.043427,32.0740863 23.2140796,32.0740863 C21.3810751,32.0740863 19.892998,33.5253187 19.892998,35.2895368 C19.8931905,37.0611496 21.3772254,38.493895 23.2140796,38.493895 L23.2140796,38.493895 Z M34.6115067,88.3985444 C39.5931292,88.3985444 43.8267672,85.3045538 45.4490042,81.0394093 L23.7817086,81.0394093 C25.3846973,85.3045538 29.6262271,88.3985444 34.6115067,88.3985444 L34.6115067,88.3985444 Z M0.0858468999,75.363334 C0.0858468999,73.6579048 1.10985028,72.1920676 2.59388525,71.5143328 L2.59388525,53.3264152 C2.59388525,49.7279133 5.47764816,46.7995665 9.11709476,46.5529494 L9.11709476,37.7682788 C9.11709476,37.7682788 10.0067458,21.7424203 23.7894078,16.7440799 C27.8773371,15.2708479 31.60879,14.6740863 34.8530714,14.556139 C38.0973528,14.6775988 41.8403546,15.270663 45.916735,16.7477773 C59.6993971,21.7276307 60.5815413,37.7717913 60.5815413,37.7717913 L60.5815413,46.5969486 C64.236194,46.8106587 67.1124501,49.7388207 67.1124501,53.3373226 L67.1124501,71.5143328 C68.5889783,72.1920676 69.6243381,73.6616022 69.6243381,75.3707289 C69.6243381,77.728011 67.6454323,79.6286634 65.2141942,79.6286634 C62.7752568,79.6286634 60.8002007,77.7244985 60.8002007,75.3707289 C60.8002007,73.6616022 61.8203544,72.1994624 63.2966901,71.5143328 L63.2966901,59.3816596 C62.4684408,59.7684084 61.5556919,60.0226052 60.5892406,60.0924862 L60.5892406,64.3097493 C60.6198452,64.6597089 60.6506423,64.9985763 60.6506423,65.3411411 C60.6506423,65.7167977 60.6200377,66.0630599 60.5892406,66.4535062 L60.5892406,66.5566638 L60.573842,66.5566638 C59.9985138,73.5695368 54.2883476,79.2345198 47.0864472,80.00432 L47.0941464,80.0889907 L34.8530714,80.0889907 L22.5965979,80.0889907 L22.6004475,80.00432 C15.3985471,79.2271249 9.71513583,73.599116 9.11690227,66.5566638 L9.109203,66.5566638 L9.109203,66.4535062 C9.07474875,66.0667573 9.05550057,65.7167977 9.05550057,65.3411411 C9.05550057,65.0022737 9.08610518,64.6671037 9.109203,64.3097493 L9.109203,60.0924862 C8.14275169,60.0189078 7.21479675,59.7684084 6.39790382,59.3816596 L6.39790382,71.5143328 C7.87808916,72.1920676 8.91364145,73.6616022 8.91364145,75.3707289 C8.91364145,77.728011 6.93107852,79.6286634 4.49194866,79.6286634 C2.05686092,79.6286634 0.0858468999,77.7206162 0.0858468999,75.363334 L0.0858468999,75.363334 Z M42.2047228,52.9949426 C42.2047228,51.8531832 41.2498204,50.924949 40.0839579,50.924949 C38.9065465,50.924949 37.9747419,51.8531832 37.9747419,52.9949426 C37.9747419,54.1257947 38.9065465,55.0501466 40.0839579,55.0501466 C41.2575196,55.0464492 42.2047228,54.1219125 42.2047228,52.9949426 L42.2047228,52.9949426 Z M47.443116,52.9949426 C47.443116,51.8531832 46.4805143,50.924949 45.3146518,50.924949 C44.152639,50.924949 43.2015862,51.8531832 43.2015862,52.9949426 C43.2015862,54.1257947 44.1564886,55.0501466 45.3146518,55.0501466 C46.4768572,55.0464492 47.443116,54.1219125 47.443116,52.9949426 L47.443116,52.9949426 Z M52.7007574,52.9949426 C52.7007574,51.8531832 51.7420054,50.924949 50.5609368,50.924949 C49.3912247,50.924949 48.4288155,51.8531832 48.4288155,52.9949426 C48.4288155,54.1257947 49.3914172,55.0501466 50.5609368,55.0501466 C51.7421979,55.0464492 52.7007574,54.1219125 52.7007574,52.9949426 L52.7007574,52.9949426 Z M16.9555327,35.8787187 C16.9555327,41.3410837 21.3695262,41.6945559 21.3695262,41.6945559 C22.8995643,42.1696728 26.1592442,41.9450552 27.6203739,41.6945559 C28.9740986,41.4808457 33.9403226,41.0683999 34.7225687,41.0020314 C34.757023,41.0020314 34.8068758,41.0057289 34.8453722,41.0057289 C34.8875257,41.0057289 34.9373785,41.0020314 34.9566267,41.0020314 C35.758121,41.0647025 40.7089464,41.4808457 42.0588215,41.6945559 C43.5428565,41.9450552 46.79118,42.1696728 48.3212181,41.6945559 C48.3212181,41.6945559 52.731362,41.3556885 52.731362,35.8787187 C52.731362,35.8787187 52.731362,29.8160795 48.3212181,26.1253272 C44.0375348,22.5673119 37.5834263,21.7864195 35.0830872,21.7496303 L35.0830872,21.7496303 L34.952777,21.7496303 L34.8415225,21.7496303 L34.715062,21.7496303 L34.6038075,21.7496303 L34.6038075,21.7496303 C32.0957691,21.7864195 25.6416606,22.5710093 21.3579773,26.1253272 C16.9555327,29.8160795 16.9555327,35.8787187 16.9555327,35.8787187 L16.9555327,35.8787187 Z" id="Robo.to"></path>
                </g>
            </g>
        </g>
    </g>
</svg>