<?xml version="1.0" encoding="UTF-8" standalone="no"?>
<svg width="80px" height="80px" viewBox="0 0 80 80" version="1.1" xmlns="http://www.w3.org/2000/svg" xmlns:xlink="http://www.w3.org/1999/xlink" xmlns:sketch="http://www.bohemiancoding.com/sketch/ns">
    <!-- Generator: Sketch 3.4.3 (16044) - http://www.bohemiancoding.com/sketch -->
    <title>three115</title>
    <desc>Created with Sketch.</desc>
    <defs></defs>
    <g id="Welcome" stroke="none" stroke-width="1" fill="none" fill-rule="evenodd" sketch:type="MSPage">
        <g id="Desktop-HD-3" sketch:type="MSArtboardGroup" transform="translate(-777.000000, -681.000000)" fill="#237D8D">
            <g id="three115" sketch:type="MSLayerGroup" transform="translate(777.000000, 681.000000)">
                <g id="Capa_1" sketch:type="MSShapeGroup">
                    <g id="Group">
                        <path d="M32.837377,64.864918 L31.0144262,64.1934426 C31.1580328,62.8642623 31.1108197,61.5095082 30.8609836,60.1632787 L32.6209836,59.3521311 C33.7206557,58.8465574 34.202623,57.5390164 33.6957377,56.44 L32.6681967,54.2104918 C32.1619672,53.1114754 30.8563934,52.6281967 29.7586885,53.1344262 L27.9960656,53.9468852 C27.135082,52.88 26.1357377,51.9645902 25.0327869,51.2085246 L25.7055738,49.3888525 C26.1239344,48.2537705 25.5416393,46.9881967 24.4072131,46.5685246 L22.1022951,45.717377 C21.002623,45.3127869 19.6891803,45.917377 19.2839344,47.015082 L18.6118033,48.8367213 C17.2839344,48.695082 15.9291803,48.7409836 14.5816393,48.9895082 L13.7704918,47.2288525 C13.2642623,46.1298361 11.957377,45.6472131 10.8596721,46.1527869 L8.62819672,47.1790164 C7.52918033,47.6859016 7.04786885,48.9940984 7.55278689,50.0911475 L8.36393443,51.8511475 C7.29901639,52.7134426 6.38163934,53.7127869 5.62688525,54.8170492 L3.80786885,54.1442623 C2.7095082,53.735082 1.39409836,54.3409836 0.986885246,55.4419672 L0.136393443,57.7468852 C-0.0662295082,58.2977049 -0.0426229508,58.8937705 0.201967213,59.4262295 C0.44852459,59.9586885 0.886557377,60.3639344 1.4347541,60.5639344 L3.25770492,61.2380328 C3.11344262,62.5652459 3.16065574,63.922623 3.41114754,65.2681967 L1.64918033,66.0793443 C0.550163934,66.584918 0.068852459,67.8911475 0.57442623,68.9895082 L1.60262295,71.2216393 C2.10885246,72.32 3.41442623,72.802623 4.51278689,72.2957377 L6.2747541,71.4859016 C7.1357377,72.5521311 8.13442623,73.4668852 9.23868852,74.2229508 L8.56590164,76.0439344 C8.36131148,76.5934426 8.38491803,77.1881967 8.63147541,77.7219672 C8.8747541,78.2544262 9.31409836,78.6609836 9.86360656,78.864918 L12.1685246,79.7147541 C12.7167213,79.9180328 13.3140984,79.8937705 13.8465574,79.6498361 C14.3796721,79.4039344 14.7842623,78.9659016 14.9862295,78.4157377 L15.6596721,76.5934426 C16.987541,76.7377049 18.3436066,76.6898361 19.6904918,76.4419672 L20.5003279,78.202623 C21.0065574,79.3003279 22.3140984,79.7829508 23.4118033,79.2767213 L25.642623,78.2498361 C26.7429508,77.7442623 27.224918,76.4380328 26.717377,75.3390164 L25.9062295,73.5783607 C26.972459,72.7167213 27.8891803,71.717377 28.642623,70.6144262 L30.4642623,71.2878689 C31.0157377,71.4918033 31.6118033,71.4662295 32.144918,71.2203279 C32.6760656,70.975082 33.08,70.5370492 33.2832787,69.9881967 L34.1337705,67.6832787 C34.5540984,66.5495082 33.9718033,65.2852459 32.837377,64.864918 L32.837377,64.864918 Z M20.7665574,70.5980328 C19.6163934,71.1285246 18.3960656,71.3954098 17.1383607,71.3954098 C13.76,71.3954098 10.664918,69.4137705 9.25311475,66.3481967 C7.25180328,62 9.15868852,56.8354098 13.5042623,54.8340984 C14.6537705,54.3036066 15.8740984,54.0360656 17.1298361,54.0360656 C20.507541,54.0360656 23.6052459,56.0170492 25.0177049,59.0832787 C27.0190164,63.4314754 25.1114754,68.5960656 20.7665574,70.5980328 L20.7665574,70.5980328 Z" id="Shape"></path>
                        <path d="M54.5436066,71.147541 L53.5291803,70.7744262 C53.6098361,70.0340984 53.5829508,69.2793443 53.4432787,68.5298361 L54.4229508,68.0780328 C55.0360656,67.797377 55.3042623,67.0695082 55.0216393,66.4563934 L54.4498361,65.2144262 C54.1665574,64.6013115 53.4406557,64.3318033 52.8295082,64.615082 L51.8478689,65.0668852 C51.3691803,64.4734426 50.8118033,63.9619672 50.1986885,63.5422951 L50.572459,62.5285246 C50.8052459,61.8963934 50.4806557,61.1927869 49.8491803,60.957377 L48.5652459,60.4839344 C47.9527869,60.2570492 47.2222951,60.5940984 46.9954098,61.2065574 L46.6209836,62.2216393 C45.882623,62.1422951 45.1272131,62.1685246 44.3777049,62.3068852 L43.9265574,61.3278689 C43.6432787,60.7154098 42.9160656,60.4459016 42.3042623,60.7285246 L41.0616393,61.3009836 C40.4491803,61.5842623 40.1816393,62.3108197 40.4629508,62.922623 L40.9147541,63.9029508 C40.3213115,64.3829508 39.8104918,64.9396721 39.3895082,65.5547541 L38.3770492,65.1809836 C37.7665574,64.9534426 37.0334426,65.2891803 36.8072131,65.9029508 L36.332459,67.1868852 C36.2203279,67.4937705 36.2340984,67.8262295 36.3685246,68.122623 C36.5062295,68.4177049 36.7508197,68.6439344 37.0563934,68.7560656 L38.0708197,69.1311475 C37.9901639,69.8714754 38.0163934,70.624918 38.1560656,71.3757377 L37.1757377,71.8268852 C36.5632787,72.1095082 36.295082,72.8354098 36.5770492,73.4478689 L37.1501639,74.6911475 C37.4314754,75.3022951 38.1586885,75.5718033 38.7704918,75.2898361 L39.7508197,74.8386885 C40.2301639,75.4321311 40.787541,75.9422951 41.402623,76.3619672 L41.0281967,77.375082 C40.9140984,77.6819672 40.9272131,78.0144262 41.0642623,78.3108197 C41.2006557,78.6065574 41.4439344,78.8334426 41.7514754,78.947541 L43.0340984,79.4209836 C43.3403279,79.5337705 43.6714754,79.5206557 43.9685246,79.3842623 C44.2655738,79.2478689 44.4911475,79.0039344 44.6032787,78.6983607 L44.9777049,77.6819672 C45.7180328,77.762623 46.4714754,77.7370492 47.2222951,77.597377 L47.6734426,78.5777049 C47.9554098,79.1888525 48.682623,79.4583607 49.2937705,79.175082 L50.5370492,78.6032787 C51.1495082,78.32 51.4170492,77.5947541 51.135082,76.9822951 L50.6839344,76.0013115 C51.2767213,75.5219672 51.7881967,74.9665574 52.2072131,74.3514754 L53.2216393,74.7252459 C53.5285246,74.84 53.8609836,74.824918 54.1580328,74.6885246 C54.452459,74.5527869 54.6793443,74.307541 54.7921311,74.0019672 L55.2655738,72.7186885 C55.4990164,72.0865574 55.1744262,71.3809836 54.5436066,71.147541 L54.5436066,71.147541 Z M47.8222951,74.3409836 C47.1816393,74.6347541 46.5029508,74.784918 45.802623,74.784918 C43.9219672,74.784918 42.1980328,73.6806557 41.4118033,71.9737705 C40.2970492,69.5540984 41.3580328,66.677377 43.7790164,65.5639344 C44.4190164,65.2688525 45.0983607,65.12 45.7980328,65.12 C47.6780328,65.12 49.4019672,66.2229508 50.1888525,67.9298361 C51.3022951,70.3501639 50.2413115,73.224918 47.8222951,74.3409836 L47.8222951,74.3409836 Z" id="Shape"></path>
                        <path d="M77.5534426,32.522623 L74.4891803,31.3914754 C74.7311475,29.157377 74.6518033,26.8786885 74.2314754,24.6131148 L77.1914754,23.2511475 C79.0380328,22.402623 79.8485246,20.2039344 78.997377,18.3540984 L77.2701639,14.6045902 C76.4190164,12.7560656 74.2236066,11.9429508 72.3777049,12.7954098 L69.4144262,14.1619672 C67.9665574,12.3685246 66.2859016,10.8295082 64.4334426,9.55868852 L65.5632787,6.49770492 C66.2662295,4.58885246 65.2891803,2.46163934 63.3809836,1.75737705 L59.5062295,0.323934426 C57.6583607,-0.355409836 55.4498361,0.661639344 54.7665574,2.50754098 L53.6360656,5.57180328 C51.4032787,5.33180328 49.1239344,5.41114754 46.8603279,5.82819672 L45.4963934,2.87081967 C44.6452459,1.02229508 42.4498361,0.211147541 40.6013115,1.06229508 L36.8504918,2.7895082 C35.002623,3.64131148 34.1914754,5.83868852 35.0413115,7.6852459 L36.4072131,10.6445902 C34.6163934,12.0944262 33.0740984,13.7744262 31.8039344,15.6301639 L28.744918,14.4996721 C26.8990164,13.8118033 24.6872131,14.8301639 24.0039344,16.6793443 L22.5737705,20.5560656 C22.2321311,21.4806557 22.2721311,22.482623 22.682623,23.3783607 C23.0983607,24.2727869 23.8354098,24.9540984 24.7567213,25.2911475 L27.8209836,26.4255738 C27.5777049,28.6570492 27.6570492,30.9383607 28.0780328,33.202623 L25.1180328,34.5652459 C23.2695082,35.4170492 22.4603279,37.6111475 23.3108197,39.4577049 L25.0386885,43.2111475 C25.8898361,45.0557377 28.0852459,45.8695082 29.932459,45.0177049 L32.8931148,43.6537705 C34.3409836,45.4472131 36.0216393,46.9868852 37.8780328,48.2563934 L36.7462295,51.3180328 C36.402623,52.2406557 36.442623,53.2432787 36.8557377,54.1396721 C37.2662295,55.0340984 38.0039344,55.717377 38.9272131,56.0603279 L42.8019672,57.4891803 C43.7259016,57.8308197 44.7285246,57.7914754 45.6236066,57.3816393 C46.52,56.9685246 47.2,56.2314754 47.5396721,55.307541 L48.6734426,52.2419672 C50.9055738,52.4852459 53.1842623,52.4059016 55.4511475,51.9868852 L56.812459,54.9455738 C57.6636066,56.7908197 59.8603279,57.6052459 61.7081967,56.7521311 L65.4590164,55.024918 C67.3088525,54.172459 68.117377,51.9783607 67.2655738,50.1304918 L65.9022951,47.1711475 C67.6937705,45.72 69.2360656,44.042623 70.5036066,42.1868852 L73.5672131,43.3206557 C74.492459,43.6622951 75.495082,43.6216393 76.3914754,43.2085246 C77.2845902,42.7967213 77.9639344,42.0590164 78.3055738,41.1370492 L79.7377049,37.2609836 C80.44,35.3534426 79.4609836,33.2262295 77.5534426,32.522623 L77.5534426,32.522623 Z M57.2603279,42.16 C55.3259016,43.0498361 53.2747541,43.5016393 51.1613115,43.5016393 C45.4806557,43.5016393 40.2780328,40.1691803 37.9022951,35.0131148 C34.5370492,27.7042623 37.7436066,19.0209836 45.0491803,15.6563934 C46.9816393,14.7652459 49.0340984,14.3154098 51.1455738,14.3154098 C56.8255738,14.3154098 62.0314754,17.6459016 64.4072131,22.8006557 C67.7711475,30.1114754 64.5659016,38.7954098 57.2603279,42.16 L57.2603279,42.16 Z" id="Shape"></path>
                    </g>
                </g>
            </g>
        </g>
    </g>
</svg>