<?xml version="1.0" encoding="UTF-8" standalone="no"?>
<svg width="65px" height="75px" viewBox="0 0 65 75" version="1.1" xmlns="http://www.w3.org/2000/svg" xmlns:xlink="http://www.w3.org/1999/xlink" xmlns:sketch="http://www.bohemiancoding.com/sketch/ns">
    <!-- Generator: Sketch 3.4.3 (16044) - http://www.bohemiancoding.com/sketch -->
    <title>user36</title>
    <desc>Created with Sketch.</desc>
    <defs></defs>
    <g id="Welcome" stroke="none" stroke-width="1" fill="none" fill-rule="evenodd" sketch:type="MSPage">
        <g id="Desktop-HD-3" sketch:type="MSArtboardGroup" transform="translate(-784.000000, -1093.000000)" fill="#237D8D">
            <g id="user36" sketch:type="MSLayerGroup" transform="translate(784.000000, 1093.000000)">
                <g id="Capa_1" sketch:type="MSShapeGroup">
                    <path d="M17.3034466,29.8152566 C16.1496117,30.1019417 14.9764078,29.3797157 14.6858738,28.2054092 C14.3953398,27.0311026 15.0898544,25.8485264 16.2436893,25.5618412 C17.3975243,25.2779126 18.5707282,26.0001387 18.8612621,27.1716886 C19.1573301,28.3487517 18.4572816,29.531328 17.3034466,29.8152566 L17.3034466,29.8152566 Z M36.1300485,16.3768897 C33.5871845,16.3768897 31.5174757,18.3919556 31.5174757,20.8728849 C31.5174757,23.348301 33.5899515,25.3661234 36.1300485,25.3661234 C38.6673786,25.3661234 40.7426214,23.3510576 40.7426214,20.8728849 C40.7398544,18.3947122 38.6673786,16.3768897 36.1300485,16.3768897 L36.1300485,16.3768897 Z M64.8873786,41.8835992 L64.4391262,40.3647191 L63.9659709,38.8844313 L63.3987379,37.5061373 L62.8730097,36.1388696 L62.3389806,34.7991678 L61.8409223,33.4842753 L61.4369417,32.1087379 L61.1076699,30.735957 L61.1796117,30.1046983 L61.4673786,29.5037621 L61.7662136,28.8725035 L61.8326214,28.2825936 L61.5835922,27.0807212 L61.2792233,25.8788488 L60.9610194,24.6604369 L60.5764078,23.4861304 L60.1779612,22.2897712 L59.7601456,21.1182212 L59.3091262,19.9191054 L58.8359709,18.7613384 L58.3157767,17.666973 L57.7485437,16.5450416 L57.2062136,15.4424064 L58.9051456,14.3976595 L58.3130097,13.3666956 L57.6378641,12.4101595 L56.9710194,11.4370839 L56.2958738,10.5108703 L55.662233,9.73902566 L54.9926214,8.99474688 L54.3230097,8.3193828 L53.6284951,7.65504508 L52.9229126,7.02378641 L54.4779612,6.43111997 L53.672767,5.89082871 L52.9063107,5.32572816 L52.0845146,4.84056865 L51.2737864,4.37194868 L50.4160194,3.91711165 L49.5554854,3.50362344 L48.6700485,3.10391817 L47.7292718,2.72902219 L46.8078641,2.36515257 L45.8781553,2.02333564 L44.7602913,1.66222261 L43.6534951,1.37553745 L42.5300971,1.07231276 L41.426068,0.815950069 L40.266699,0.581640083 L39.121165,0.39970527 L37.9673301,0.253606103 L36.8051942,0.146099168 L35.6651942,0.0744278779 L34.5030583,0.0358356449 L33.3547573,0 L32.1566505,0.0358356449 L30.9972816,0.0744278779 L29.8517476,0.146099168 L28.6923786,0.253606103 L27.5523786,0.39970527 L26.3570388,0.581640083 L25.175534,0.815950069 L23.9801942,1.0392337 L22.7876214,1.27630028 L21.6033495,1.62363037 L20.4135437,1.94615118 L19.2154369,2.32656033 L18.0671359,2.72902219 L16.9437379,3.17834605 L15.8397087,3.70761096 L14.7135437,4.2065534 L13.6454854,4.76614078 L12.5940291,5.39739945 L11.5951456,6.0314147 L10.632233,6.73710125 L9.68868932,7.48138003 L8.84199029,8.22014563 L8.02572816,8.99750347 L7.24820388,9.81345354 L6.5011165,10.6569695 L5.79553398,11.5942094 L5.08441748,12.4818308 L4.44800971,13.4383669 L3.84757282,14.4307386 L3.26650485,15.4396498 L2.74907767,16.4678571 L2.29805825,17.5153606 L1.86087379,18.5545943 L1.48456311,19.6296637 L1.15529126,20.7019764 L0.878592233,21.8183946 L0.66276699,22.8907074 L0.336262136,25.1786755 L0.211747573,27.4308079 L0.267087379,29.6856969 L0.485679612,31.9102635 L0.84815534,34.1430999 L1.44305825,36.323561 L2.19291262,38.4433773 L7.785,47.4849861 C17.2730097,57.2102288 16.8662621,66.9437413 16.8662621,66.9437413 L16.891165,68.8540569 L16.9658738,74.7559119 L49.2898544,74.7559119 L49.4337379,74.146706 L49.4337379,72.2611997 L49.5001456,70.3646671 L49.6440291,66.1415742 L49.8626214,63.9969487 L49.967767,63.4869799 L50.1725243,63.0790049 L50.3883495,62.7123786 L50.6761165,62.409154 L51.0662621,62.1941401 L51.5034466,62.0452843 L51.9904369,61.8854022 L52.5106311,61.8082178 L53.1857767,61.7420596 L53.8194175,61.706224 L53.9743689,61.706224 L54.6080097,61.7723821 L55.2084466,61.8082178 L55.8282524,61.8854022 L56.4065534,61.9322642 L57.078932,62.0122053 L57.7153398,62.0783634 L56.1243204,62.114199 L56.8271359,62.1913835 L57.5382524,62.2272191 L58.3130097,62.2658114 L58.7667961,62.2272191 L59.2344175,62.114199 L59.7186408,61.9322642 L60.1779612,61.706224 L60.6151456,61.4195388 L60.9942233,61.0749653 L61.3096602,60.7055825 L61.5863592,60.3224168 L61.7662136,59.5092233 L61.6693689,58.6326283 L61.4978155,57.7587899 L61.4978155,56.8959778 L61.6278641,56.5155687 L61.8077184,56.2013176 L61.9875728,55.8512309 L62.211699,55.5645458 L62.4413592,55.2585645 L62.6129126,54.9360437 L62.7623301,54.5969834 L62.803835,54.2331137 L62.7623301,53.8223821 L62.6986893,53.4612691 L62.5852427,53.0725902 L62.4026214,52.7142337 L62.1342233,52.3724168 L61.8409223,52.0443828 L61.4978155,51.7962899 L61.0993689,51.5151179 L61.5310194,51.300104 L61.940534,51.0464979 L62.3611165,50.7460298 L62.6488835,50.4593447 L62.9117476,50.1202843 L63.069466,49.7481449 L63.1497087,49.4090846 L63.069466,49.045215 L62.6571845,47.7330791 L62.3998544,46.5477462 L62.2393689,45.445111 L62.2393689,44.3562587 L62.8730097,44.1054092 L63.4374757,43.8490465 L63.93,43.5733877 L64.3339806,43.2867025 L64.6438835,42.9641817 L64.8182039,42.6223648 L64.9261165,42.2640083 L64.8873786,41.8835992 L64.8873786,41.8835992 Z M22.9176699,30.6339632 L22.1539806,31.9157767 C22.1041748,32.0067441 20.1700485,31.6042822 20.1700485,31.6042822 L19.456165,32.1390603 C19.456165,32.1390603 19.196068,34.1430999 19.1102913,34.1596394 L17.6714563,34.5152393 C17.5746117,34.5345354 16.4705825,32.8667996 16.4705825,32.8667996 L15.5906796,32.7372399 C15.5906796,32.7372399 14.0245631,33.9446255 13.9304854,33.8894938 L12.6632039,33.1093793 C12.5718932,33.051491 12.9454369,31.0998266 12.9454369,31.0998266 L12.4252427,30.3665742 C12.4252427,30.3665742 10.4551456,30.0909154 10.4247087,29.9916782 L10.065,28.5334431 C10.0400971,28.434206 11.6670874,27.3260576 11.6670874,27.3260576 L11.7971359,26.4411928 C11.7971359,26.4411928 10.5851942,24.8285888 10.637767,24.7458911 L11.3959223,23.4613211 C11.4512621,23.3758669 13.3798544,23.7700589 13.3798544,23.7700589 L14.0937379,23.2435506 C14.0937379,23.2435506 14.348301,21.2477809 14.4423786,21.2229716 L15.8729126,20.8756415 C15.9780583,20.8480756 17.0820874,22.518568 17.0820874,22.518568 L17.9592233,22.6536408 C17.9592233,22.6536408 19.5253398,21.4434986 19.6138835,21.4903606 L20.883932,22.2732316 C20.9724757,22.3283634 20.604466,24.2827843 20.604466,24.2827843 L21.1301942,25.0160368 C21.1301942,25.0160368 23.0975243,25.2916956 23.1307282,25.3964459 L23.4904369,26.8491678 C23.5153398,26.948405 21.8855825,28.0510402 21.8855825,28.0510402 L21.758301,28.9469313 C21.755534,28.9469313 22.9674757,30.548509 22.9176699,30.6339632 L22.9176699,30.6339632 Z M50.5156311,22.471706 L50.5156311,22.471706 C50.5128641,22.6894764 46.556068,24.0925798 46.556068,24.0925798 L45.8255825,25.8071775 C45.8255825,25.8071775 47.5162136,29.6002427 47.3750971,29.7518551 L45.128301,31.9323162 C44.9788835,32.0784154 41.1632039,30.3445215 41.1632039,30.3445215 L39.4006311,31.0557212 C39.4006311,31.0557212 37.8455825,34.9011616 37.6269903,34.9011616 L34.4698544,34.9011616 C34.2512621,34.9011616 32.8124272,31.0474515 32.8124272,31.0474515 L31.0415534,30.3362517 C31.0415534,30.3362517 27.165,31.9819348 27.0072816,31.8358356 L24.7936893,29.6608877 C24.6415049,29.5065187 26.4206796,25.790638 26.4206796,25.790638 L25.6901942,24.070527 C25.6901942,24.070527 21.744466,22.5544036 21.744466,22.3476595 L21.744466,19.265794 C21.744466,19.0535368 25.7012621,17.6504334 25.7012621,17.6504334 L26.4262136,15.9358356 C26.4262136,15.9358356 24.7383495,12.1345007 24.885,11.9884015 L27.1207282,9.81345354 C27.2839806,9.66459778 31.0968932,11.3957351 31.0968932,11.3957351 L32.856699,10.687292 C32.856699,10.687292 34.4117476,6.83909501 34.6220388,6.83909501 L37.7902427,6.83909501 C38.003301,6.83909501 39.4504369,10.6983183 39.4504369,10.6983183 L41.2047087,11.4040049 C41.2047087,11.4040049 45.0978641,9.75556519 45.2472816,9.90993412 L47.4913107,12.0848821 C47.6462621,12.2364945 45.8670874,15.9551318 45.8670874,15.9551318 L46.5865049,17.6697295 C46.5865049,17.6697295 50.532233,19.185853 50.532233,19.3898405 L50.532233,22.471706 L50.5156311,22.471706 L50.5156311,22.471706 Z" id="Shape"></path>
                </g>
            </g>
        </g>
    </g>
</svg>