<?xml version="1.0" encoding="UTF-8" standalone="no"?>
<svg width="84px" height="70px" viewBox="0 0 84 70" version="1.1" xmlns="http://www.w3.org/2000/svg" xmlns:xlink="http://www.w3.org/1999/xlink" xmlns:sketch="http://www.bohemiancoding.com/sketch/ns">
    <!-- Generator: Sketch 3.4.3 (16044) - http://www.bohemiancoding.com/sketch -->
    <title>web-programming</title>
    <desc>Created with Sketch.</desc>
    <defs></defs>
    <g id="Welcome" stroke="none" stroke-width="1" fill="none" fill-rule="evenodd" sketch:type="MSPage">
        <g id="Desktop-HD-3" sketch:type="MSArtboardGroup" transform="translate(-129.000000, -878.000000)" fill="#237D8D">
            <g id="web-programming" sketch:type="MSLayerGroup" transform="translate(129.000000, 878.000000)">
                <g id="Capa_1" sketch:type="MSShapeGroup">
                    <g id="Group">
                        <path d="M79.2593476,0.0655462185 L4.03359564,0.0655462185 C1.80563909,0.0655462185 0,1.80193924 0,3.94402069 L0,49.3221719 C0,51.4642534 1.80563909,53.2006464 4.03359564,53.2006464 L32.1675219,53.2006464 L32.1675219,61.9892696 L21.2197383,61.9892696 C19.1624028,61.9892696 17.4886623,63.5986425 17.4886623,65.5768584 C17.4886623,67.5550743 19.1624028,69.1644473 21.2197383,69.1644473 L62.073205,69.1644473 C64.1305405,69.1644473 65.804281,67.5550743 65.804281,65.5768584 C65.804281,63.5986425 64.1305405,61.9892696 62.073205,61.9892696 L51.1254214,61.9892696 L51.1254214,53.2006464 L79.2593476,53.2006464 C81.4873042,53.2006464 83.2929433,51.4642534 83.2929433,49.3221719 L83.2929433,3.94402069 C83.2929433,1.80193924 81.4873042,0.0655462185 79.2593476,0.0655462185 L79.2593476,0.0655462185 Z M77.2425498,47.3829347 L6.05039346,47.3829347 L6.05039346,5.88325792 L77.2425498,5.88325792 L77.2425498,47.3829347 L77.2425498,47.3829347 Z" id="Shape"></path>
                        <path d="M19.0770923,28.8242405 L31.7998596,34.5131868 C32.1287994,34.6595992 32.4789155,34.733872 32.8409307,34.733872 C33.312458,34.733872 33.7718845,34.6051067 34.1714122,34.3607628 C34.8869721,33.9211377 35.3141298,33.1720103 35.3141298,32.3565611 L35.3141298,32.2941176 C35.3141298,31.372786 34.7524516,30.5265029 33.8830101,30.1378798 L25.9257343,26.5832579 L33.8832118,23.0278604 C34.7524516,22.6392372 35.3141298,21.7927602 35.3141298,20.8718164 L35.3141298,20.8099548 C35.3141298,19.993342 34.8867704,19.2442146 34.1716139,18.805947 C33.7759181,18.5627666 33.3150798,18.4343891 32.8393172,18.4343891 C32.4807306,18.4343891 32.1207322,18.5102133 31.7986496,18.6541047 L19.0768906,24.3422754 C18.2080541,24.7310924 17.6467793,25.5773756 17.6467793,26.4981254 L17.6467793,26.6683904 C17.6465776,27.5879767 18.2076507,28.4340659 19.0770923,28.8242405 L19.0770923,28.8242405 Z" id="Shape"></path>
                        <path d="M35.4274739,40.4115708 C35.8915391,41.0222366 36.6379559,41.3868132 37.4243054,41.3868132 L37.4878345,41.3868132 C38.5672247,41.3868132 39.5131029,40.7224305 39.841841,39.7353588 L48.2230477,14.7657401 C48.46345,14.0449257 48.3299379,13.2496445 47.8658728,12.6376212 C47.4018076,12.0269554 46.6553907,11.6621849 45.8690412,11.6621849 L45.8057138,11.6621849 C44.7259202,11.6621849 43.7792353,12.3265676 43.4502956,13.3136393 L35.0680805,38.2853911 C34.829695,39.0067873 34.9640137,39.8012928 35.4274739,40.4115708 L35.4274739,40.4115708 Z" id="Shape"></path>
                        <path d="M47.9788134,20.8716225 C47.9788134,21.7919845 48.5398866,22.6382676 49.4097315,23.0284421 L57.3670073,26.583064 L49.4097315,30.1376858 C48.54029,30.526309 47.9786118,31.3725921 47.9786118,32.2939237 L47.9786118,32.3563672 C47.9786118,33.1718164 48.4055679,33.9209438 49.1219344,34.3607628 C49.5200503,34.6047188 49.9798802,34.7336781 50.4520126,34.7336781 C50.8134228,34.7336781 51.1633372,34.6594053 51.4944954,34.5122172 L64.2166577,28.8234648 C65.0852926,28.433872 65.6463657,27.5877828 65.6463657,26.6680026 L65.6463657,26.4977376 C65.6463657,25.5769877 65.0850909,24.7307046 64.215851,24.3418875 L51.4938904,18.653329 C51.1730178,18.5100194 50.8136245,18.4340013 50.4548361,18.4340013 C49.9792752,18.4340013 49.5182352,18.5623788 49.1229428,18.8047835 C48.4061729,19.2438268 47.9788134,19.9929541 47.9788134,20.8095669 L47.9788134,20.8716225 L47.9788134,20.8716225 L47.9788134,20.8716225 Z" id="Shape"></path>
                    </g>
                </g>
            </g>
        </g>
    </g>
</svg>