<?xml version="1.0" encoding="UTF-8" standalone="no"?>
<svg width="86px" height="80px" viewBox="0 0 86 80" version="1.1" xmlns="http://www.w3.org/2000/svg" xmlns:xlink="http://www.w3.org/1999/xlink" xmlns:sketch="http://www.bohemiancoding.com/sketch/ns">
    <!-- Generator: Sketch 3.4.3 (16044) - http://www.bohemiancoding.com/sketch -->
    <title>website21</title>
    <desc>Created with Sketch.</desc>
    <defs></defs>
    <g id="Welcome" stroke="none" stroke-width="1" fill="none" fill-rule="evenodd" sketch:type="MSPage">
        <g id="Desktop-HD-3" sketch:type="MSArtboardGroup" transform="translate(-774.000000, -887.000000)" fill="#237D8D">
            <g id="website21" sketch:type="MSLayerGroup" transform="translate(774.000000, 887.000000)">
                <g id="Capa_1" sketch:type="MSShapeGroup">
                    <g id="Group">
                        <path d="M57.926119,69.3813882 C57.4805571,69.1091003 57.0923286,68.7440617 56.7837524,68.3016967 C56.6412381,68.0976864 56.5208381,67.8819537 56.421119,67.6590231 L5.79107619,67.6590231 L5.79107619,17.5374807 L74.5140857,17.5374807 L74.5140857,50.26509 C75.9812048,50.3981491 77.2122333,51.365964 77.7290524,52.6912082 C78.1866952,52.4392802 78.6967571,52.283599 79.2328238,52.2360925 C79.5954571,52.2044216 79.9556333,52.2270437 80.3049571,52.2963496 L80.3049571,5.0511054 C80.3049571,2.37840617 78.140419,0.204010283 75.4795381,0.204010283 L4.82582857,0.204010283 C2.16494762,0.204010283 0,2.37840617 0,5.0511054 L0,68.6286889 C0,71.3013882 2.16494762,73.4755784 4.82582857,73.4755784 L57.4862905,73.4755784 C57.0753333,72.6397943 56.9778667,71.6962468 57.2196905,70.7884833 C57.3591333,70.2663239 57.6003429,69.7900257 57.926119,69.3813882 L57.926119,69.3813882 Z M69.2146429,8.34323907 C69.2146429,7.35485861 70.0123952,6.55341902 70.996481,6.55341902 L72.778319,6.55341902 C73.7626095,6.55341902 74.5601571,7.35465296 74.5601571,8.34323907 L74.5601571,10.3716195 C74.5601571,11.36 73.7624048,12.1612339 72.778319,12.1612339 L70.996481,12.1612339 C70.0121905,12.1612339 69.2146429,11.36 69.2146429,10.3716195 L69.2146429,8.34323907 L69.2146429,8.34323907 Z M60.9289524,8.34323907 C60.9289524,7.35485861 61.7267048,6.55341902 62.7107905,6.55341902 L64.4928333,6.55341902 C65.4771238,6.55341902 66.2746714,7.35465296 66.2746714,8.34323907 L66.2746714,10.3716195 C66.2746714,11.36 65.476919,12.1612339 64.4928333,12.1612339 L62.7107905,12.1612339 C61.7267048,12.1612339 60.9289524,11.36 60.9289524,10.3716195 L60.9289524,8.34323907 L60.9289524,8.34323907 Z M52.6430571,8.34323907 C52.6430571,7.35485861 53.4410143,6.55341902 54.4248952,6.55341902 L56.2067333,6.55341902 C57.1910238,6.55341902 57.9887762,7.35465296 57.9887762,8.34323907 L57.9887762,10.3716195 C57.9887762,11.36 57.1910238,12.1612339 56.2067333,12.1612339 L54.4248952,12.1612339 C53.4410143,12.1612339 52.6430571,11.36 52.6430571,10.3716195 L52.6430571,8.34323907 L52.6430571,8.34323907 Z" id="Shape"></path>
                        <path d="M85.9744048,65.9681234 L85.4389524,62.9182519 C85.3666714,62.5075578 84.9770095,62.2332134 84.5676905,62.3056041 L81.8672905,62.7835476 C81.5431524,62.0195373 81.1291238,61.303856 80.6376952,60.6488432 L82.4015143,58.5371722 C82.5296952,58.3841645 82.5921476,58.1857069 82.5749476,57.9860154 C82.5573381,57.7863239 82.4615095,57.6020566 82.3087571,57.4731105 L79.9470333,55.482365 C79.794281,55.3536247 79.5962762,55.2911054 79.3976571,55.3085861 C79.1988333,55.3260668 79.0153667,55.422108 78.8871857,55.575527 L77.1250048,57.6855527 C76.401581,57.3153728 75.6277857,57.0299229 74.8171333,56.8415424 L74.8171333,54.0874036 C74.8171333,53.6703342 74.4803,53.3318252 74.0650429,53.3318252 L70.9813286,53.3318252 C70.5662762,53.3318252 70.2292381,53.6703342 70.2292381,54.0874036 L70.2292381,56.8415424 C69.4181762,57.0297172 68.6452,57.3153728 67.9213667,57.6855527 L66.1587762,55.5757326 C65.8917667,55.256144 65.4175381,55.2146015 65.0991333,55.4825707 L62.7372048,57.4731105 C62.5844524,57.6020566 62.4888286,57.7863239 62.471219,57.9860154 C62.454019,58.1857069 62.5162667,58.3843702 62.6444476,58.5377892 L64.4084714,60.6490488 C63.9178619,61.303856 63.5030143,62.0199486 63.1788762,62.7837532 L60.4784762,62.3056041 C60.070181,62.233419 59.6797,62.5075578 59.6072143,62.9182519 L59.0719667,65.9681234 C59.0373619,66.165347 59.0822048,66.3681234 59.1962571,66.5324422 C59.3111286,66.6967609 59.4849714,66.8084319 59.6815429,66.8431877 L62.3839905,67.3215424 C62.4280143,68.1624679 62.5738048,68.9760411 62.8084619,69.7507455 L60.4332238,71.1276093 C60.2604048,71.2273522 60.1344762,71.3926992 60.0826714,71.5860154 C60.0310714,71.7795373 60.0583048,71.9856041 60.157819,72.1591774 L61.6994714,74.8411311 C61.798781,75.0147044 61.9634095,75.1411825 62.1558857,75.1930077 C62.2199762,75.2102828 62.2852952,75.2187147 62.3506143,75.2187147 C62.4814571,75.2187147 62.6110714,75.1845758 62.7265571,75.1175321 L65.1036381,73.7390231 C65.6626381,74.3405656 66.2937143,74.8736247 66.9833524,75.3244216 L66.0447238,77.9142416 C65.9767429,78.1026221 65.9855476,78.3103342 66.0699095,78.491928 C66.1542714,78.6735219 66.306819,78.8139846 66.4941762,78.8822622 L69.3911476,79.9411825 C69.474281,79.9716195 69.5615095,79.9872494 69.6485333,79.9872494 C69.7570571,79.9872494 69.8661952,79.963599 69.9667333,79.9162982 C70.1475381,79.8317738 70.286981,79.6783548 70.3551667,79.4899743 L71.2935905,76.9001542 C71.6959476,76.9491003 72.1054714,76.9743959 72.5209333,76.9743959 C72.9363952,76.9743959 73.345919,76.9486889 73.7482762,76.9001542 L74.6869048,79.4899743 C74.7548857,79.6783548 74.8949429,79.8317738 75.0753381,79.9162982 C75.1756714,79.9633933 75.2844,79.9872494 75.3935381,79.9872494 C75.4803571,79.9872494 75.5675857,79.9720308 75.650719,79.9411825 L78.5481,78.8822622 C78.7350476,78.8139846 78.8878,78.6731105 78.9719571,78.491928 C79.056319,78.3103342 79.0653286,78.1026221 78.9971429,77.9142416 L78.0585143,75.3248329 C78.7475381,74.874036 79.3786143,74.3405656 79.9382286,73.7394344 L82.3153095,75.1179434 C82.4305905,75.1845758 82.5604095,75.219126 82.6912524,75.219126 C82.7563667,75.219126 82.8223,75.2102828 82.885981,75.193419 C83.0786619,75.1415938 83.242881,75.0147044 83.3423952,74.8415424 L84.8840476,72.1591774 C84.9835619,71.9860154 85.0107952,71.7795373 84.9591952,71.5860154 C84.9073905,71.3931105 84.7814619,71.2277635 84.6086429,71.1276093 L82.2338143,69.7511568 C82.4684714,68.9762468 82.6138524,68.1626735 82.6578762,67.3219537 L85.3603238,66.8433933 C85.5568952,66.8086375 85.7313524,66.6969666 85.8456095,66.5326478 C85.9641667,66.3681234 86.0090095,66.165347 85.9744048,65.9681234 L85.9744048,65.9681234 Z M72.5233905,70.8146015 C70.2392714,70.8146015 68.3872,68.9544473 68.3872,66.6601542 C68.3872,64.3658612 70.2394762,62.5059126 72.5233905,62.5059126 C74.8077143,62.5059126 76.6597857,64.3658612 76.6597857,66.6601542 C76.6597857,68.9544473 74.8077143,70.8146015 72.5233905,70.8146015 L72.5233905,70.8146015 Z" id="Shape"></path>
                        <g transform="translate(15.766667, 23.239075)" id="Shape">
                            <path d="M17.9565952,22.0818509 C17.9565952,21.1045758 17.3863333,20.2068895 16.5036048,19.7951671 L8.42472381,16.02509 L16.5038095,12.2546015 C17.3863333,11.8424679 17.9565952,10.9449871 17.9565952,9.96812339 L17.9565952,9.90251928 C17.9565952,9.03670951 17.5227048,8.2418509 16.796619,7.77727506 C16.3948762,7.51958869 15.9269952,7.38323907 15.4439619,7.38323907 C15.0798952,7.38323907 14.7143952,7.46365039 14.3873905,7.61624679 L1.47141905,13.6487404 C0.5891,14.060874 0.019247619,14.9583548 0.019247619,15.9350129 L0.019247619,16.1153728 C0.019247619,17.0907969 0.588895238,17.9876607 1.47162381,18.4018509 L14.3888238,24.4349614 C14.7227905,24.5902314 15.0784619,24.6689974 15.4458048,24.6689974 C15.9245381,24.6689974 16.3909857,24.5324422 16.796619,24.2733162 C17.5231143,23.8068895 17.9568,23.0126478 17.9568,22.1478663 L17.9565952,22.0818509 L17.9565952,22.0818509 L17.9565952,22.0818509 Z"></path>
                            <path d="M30.7003619,1.23640103 C30.2292048,0.588586118 29.471381,0.201953728 28.6730143,0.201953728 L28.608719,0.201953728 C27.5124238,0.201953728 26.5512714,0.906323907 26.2173048,1.9533162 L17.7074,28.4359897 C17.4651667,29.200617 17.6015381,30.0427763 18.072081,30.6903856 C18.5432381,31.3377892 19.3010619,31.7246272 20.0994286,31.7246272 L20.1639286,31.7246272 C21.2598143,31.7246272 22.2203524,31.0200514 22.5539095,29.9732648 L31.0627905,3.49264781 C31.3072762,2.72863753 31.1717238,1.88524422 30.7003619,1.23640103 L30.7003619,1.23640103 Z"></path>
                            <path d="M47.3002048,13.6485347 L34.3840286,7.61604113 C34.0580476,7.46385604 33.6931619,7.38344473 33.3290952,7.38344473 C32.8462667,7.38344473 32.378181,7.51938303 31.9766429,7.7766581 C31.2493286,8.24205656 30.8154381,9.03670951 30.8154381,9.90251928 L30.8154381,9.96812339 C30.8154381,10.9441645 31.3852905,11.8418509 32.2686333,12.2556298 L40.3473095,16.0252956 L32.2684286,19.7951671 C31.3857,20.2068895 30.8154381,21.1045758 30.8154381,22.0818509 L30.8154381,22.1478663 C30.8154381,23.0126478 31.2493286,23.8066838 31.9762333,24.2735219 C32.3804333,24.5322365 32.8472905,24.6689974 33.3266381,24.6689974 C33.6935714,24.6689974 34.0488333,24.5902314 34.3850524,24.4343445 L47.3018429,18.4012339 C48.1837524,17.988072 48.7531952,17.0910026 48.7531952,16.1155784 L48.7531952,15.9352185 C48.752581,14.9583548 48.1827286,14.060874 47.3002048,13.6485347 L47.3002048,13.6485347 Z"></path>
                        </g>
                    </g>
                </g>
            </g>
        </g>
    </g>
</svg>